<svg width="45" height="45" viewBox="0 0 45 45" fill="none" xmlns="http://www.w3.org/2000/svg">
<g clip-path="url(#clip0_481_694)">
<path d="M32.0704 42.3036C31.0664 42.9353 30.0001 43.4623 28.8882 43.8762C30.0258 43.4745 31.1119 42.9398 32.1237 42.2833C32.2437 42.2041 32.3637 42.1239 32.4825 42.0391C32.3569 42.1182 32.2188 42.2098 32.0704 42.3036Z" fill="white"/>
<path d="M22.8475 7.29188e-05C10.3936 -0.186471 0 10.0316 0 22.4701C0 33.587 8.12604 42.8441 18.7574 44.6292C20.8279 45.0871 22.9732 45.0996 25.1513 44.7841C25.3336 44.7593 25.5158 44.7299 25.6992 44.6993C26.7688 44.5227 27.8208 44.2526 28.843 43.8921L28.8883 43.8763C30.0002 43.4623 31.0666 42.9354 32.0706 42.3037C32.2189 42.2098 32.357 42.1183 32.4826 42.0335C32.5234 42.0075 32.5642 41.9792 32.6038 41.9498L32.6604 41.9102C33.9126 41.0063 35.0148 39.9114 35.9264 38.6655C38.4238 35.2738 39.1325 31.5158 37.3789 27.6052C35.5947 23.6256 32.2947 21.4503 28.0811 20.5832L27.6147 20.4894C28.4072 20.1106 29.16 19.8223 29.8392 19.4142C33.7675 17.0547 33.9147 11.6212 30.1392 9.02879C28.4977 7.89822 26.6423 7.4313 24.6804 7.40869C21.5343 7.37364 18.3872 7.3906 15.24 7.3872C15.0906 7.3872 14.9411 7.40642 14.6343 7.42677C14.8008 7.62915 14.8913 7.75125 14.9932 7.86091C15.1958 8.07685 15.4947 8.25322 15.5921 8.50647C15.7821 8.9602 15.8898 9.44409 15.9102 9.9355C15.9283 17.9708 15.9328 26.0058 15.9238 34.0403C15.924 34.1225 15.9179 34.2045 15.9057 34.2857C15.8004 34.9776 15.6792 35.6559 14.9004 35.9702C14.8522 36.0055 14.8139 36.0525 14.7889 36.1067C14.764 36.1609 14.7533 36.2205 14.7577 36.28C14.7804 36.3603 14.9479 36.4496 15.0509 36.4496C16.9958 36.4586 18.9411 36.4586 20.8868 36.4496C21 36.4496 21.1132 36.3184 21.2208 36.2472C21.137 36.1409 21.0577 36.0301 20.9672 35.9295C20.7668 35.7102 20.4657 35.5282 20.3796 35.2715C20.1875 34.7576 20.0778 34.2165 20.0547 33.6684C20.0287 29.587 20.04 25.5057 20.0411 21.4243C20.0411 21.257 20.0558 21.0852 20.0649 20.9043C20.1641 20.8823 20.2647 20.8671 20.366 20.8591C22.3283 20.8591 24.2928 20.8609 26.2596 20.8647C27.2432 20.8664 28.1985 21.1931 28.9766 21.794C29.6558 22.3084 30.3351 22.8602 30.8796 23.5102C33.6317 26.8081 34.5374 30.5978 33.7189 34.8012C33.103 37.9612 31.7072 40.6632 29.0479 42.6021C27.7645 43.5334 26.2767 44.1447 24.7087 44.385H24.7008C23.7372 44.5349 22.7606 44.5842 21.7868 44.532C21.0226 44.4977 20.2612 44.4172 19.5068 44.2912C17.8581 44.0671 16.2404 43.6556 14.6853 43.0645C6.2966 39.8729 0.339623 31.7136 0.45283 22.2067C0.593208 10.3719 10.1887 0.702156 22.0347 0.4523C34.4038 0.201314 44.5472 10.1752 44.5472 22.4701C44.5536 27.5802 42.7716 32.5319 39.5094 36.4688C40.6253 35.5829 41.5545 34.4851 42.2434 33.2388C44.0563 29.939 45.0046 26.2351 45 22.4712C45 10.1967 35.0943 0.188878 22.8475 7.29188e-05ZM24.206 20.4238C22.8385 20.4294 21.4709 20.4238 20.074 20.4238V7.89144C21.7358 7.89144 23.374 7.81908 25.0008 7.91744C25.9721 7.97623 26.7057 8.63083 27.2649 9.43014C29.0117 11.9502 29.0253 16.2384 27.2977 18.7641C26.546 19.8506 25.5226 20.4204 24.2015 20.426L24.206 20.4238Z" fill="white"/>
<path d="M32.0708 42.3036C31.0668 42.9352 30.0004 43.4622 28.8885 43.8762C30.0261 43.4745 31.1122 42.9398 32.124 42.2832L32.0708 42.3036ZM25.1515 44.784C25.621 44.7282 26.0866 44.6585 26.5485 44.5749H26.5598C27.3351 44.3992 28.0979 44.1726 28.8432 43.8965C27.8205 44.2555 26.7681 44.5241 25.6983 44.6992C25.516 44.7298 25.3338 44.7591 25.1515 44.784ZM19.5059 44.2854C20.2603 44.4115 21.0217 44.4919 21.7859 44.5262C22.7597 44.5784 23.7362 44.5292 24.6998 44.3793C23.976 44.4501 23.2428 44.4878 22.5002 44.4923C21.4985 44.4911 20.4981 44.422 19.5059 44.2854ZM22.5002 44.4878C21.4987 44.4881 20.4982 44.4204 19.5059 44.2854C20.2603 44.4115 21.0217 44.4919 21.7859 44.5262C22.7597 44.5784 23.7362 44.5292 24.6998 44.3793C23.976 44.4509 23.2428 44.4871 22.5002 44.4878Z" fill="white"/>
<path d="M32.4825 42.0334C32.3637 42.1182 32.2437 42.1985 32.1237 42.2777C31.1121 42.9362 30.0261 43.4728 28.8882 43.8763C30.0001 43.4623 31.0664 42.9353 32.0704 42.3037C32.2188 42.2098 32.3569 42.1182 32.4825 42.0334Z" fill="white"/>
</g>
<defs>
<clipPath id="clip0_481_694">
<rect width="45" height="45" fill="white"/>
</clipPath>
</defs>
</svg>
