<svg xmlns="http://www.w3.org/2000/svg" viewBox="0 0 397.5 398.03"><g id="Layer_2" data-name="Layer 2"><g id="Layer_1-2" data-name="Layer 1"><path d="M283.29,374.18a153,153,0,0,1-28.11,13.91A135.12,135.12,0,0,0,283.76,374c1.06-.7,2.12-1.41,3.17-2.16C285.82,372.54,284.6,373.35,283.29,374.18Z"/><path d="M201.82,0C91.81-1.65,0,88.73,0,198.75c0,98.33,71.78,180.21,165.69,196,18.29,4.05,37.24,4.16,56.48,1.37,1.61-.22,3.22-.48,4.84-.75a163.54,163.54,0,0,0,27.77-7.14l.4-.14a153,153,0,0,0,28.11-13.91c1.31-.83,2.53-1.64,3.64-2.39.36-.23.72-.48,1.07-.74l.5-.35A130.18,130.18,0,0,0,317.35,342c22.06-30,28.32-63.24,12.83-97.83-15.76-35.2-44.91-54.44-82.13-62.11l-4.12-.83c7-3.35,13.65-5.9,19.65-9.51,34.7-20.87,36-68.93,2.65-91.86-14.5-10-30.89-14.13-48.22-14.33-27.79-.31-55.59-.16-83.39-.19-1.32,0-2.64.17-5.35.35,1.47,1.79,2.27,2.87,3.17,3.84,1.79,1.91,4.43,3.47,5.29,5.71a36.68,36.68,0,0,1,2.81,12.64q.24,106.61.12,213.21a14.31,14.31,0,0,1-.16,2.17c-.93,6.12-2,12.12-8.88,14.9a3.11,3.11,0,0,0-1.26,2.74c.2.71,1.68,1.5,2.59,1.5q25.77.12,51.55,0c1,0,2-1.16,2.95-1.79-.74-.94-1.44-1.92-2.24-2.81-1.77-1.94-4.43-3.55-5.19-5.82a46.08,46.08,0,0,1-2.87-14.18c-.23-36.1-.13-72.2-.12-108.3,0-1.48.13-3,.21-4.6a19.38,19.38,0,0,1,2.66-.4q26,0,52.06.05a39.34,39.34,0,0,1,24,8.22c6,4.55,12,9.43,16.81,15.18,24.31,29.17,32.31,62.69,25.08,99.87-5.44,27.95-17.77,51.85-41.26,69a87.9,87.9,0,0,1-38.33,15.77h-.07a124.06,124.06,0,0,1-25.74,1.3,167.84,167.84,0,0,1-20.14-2.13,192.88,192.88,0,0,1-42.59-10.85C55.62,352.68,3,280.51,4,196.42,5.24,91.74,90,6.21,194.64,4,303.9,1.78,393.5,90,393.5,198.75A193.84,193.84,0,0,1,349,322.57h0A95.39,95.39,0,0,0,373.15,294a197.49,197.49,0,0,0,24.35-95.24C397.5,90.19,310,1.67,201.82,0Zm12,180.65c-12.08.05-24.16,0-36.5,0V69.8c14.68,0,29.15-.64,43.52.23,8.58.52,15.06,6.31,20,13.38,15.43,22.29,15.55,60.22.29,82.56C234.49,175.58,225.45,180.62,213.78,180.67Z"/><path d="M283.29,374.18a153,153,0,0,1-28.11,13.91A135.12,135.12,0,0,0,283.76,374Zm-61.12,21.94q6.22-.74,12.34-1.85l.1,0a159.34,159.34,0,0,0,20.17-6A163.54,163.54,0,0,1,227,395.37C225.39,395.64,223.78,395.9,222.17,396.12Zm-49.87-4.41a167.84,167.84,0,0,0,20.14,2.13,124.06,124.06,0,0,0,25.74-1.3q-9.59.94-19.43,1A195.62,195.62,0,0,1,172.3,391.71Zm26.45,1.79a195.62,195.62,0,0,1-26.45-1.79,167.84,167.84,0,0,0,20.14,2.13,124.06,124.06,0,0,0,25.74-1.3Q208.59,393.49,198.75,393.5Z"/><path d="M286.93,371.79c-1.05.75-2.11,1.46-3.17,2.16a135.12,135.12,0,0,1-28.58,14.14,153,153,0,0,0,28.11-13.91C284.6,373.35,285.82,372.54,286.93,371.79Z"/></g></g></svg>